<svg xmlns="http://www.w3.org/2000/svg" width="980" height="980" viewBox="0 0 980 980">
<g>
<path d="M 517.61 834.74 C515.99,835.74 465.24,835.78 460.00,834.78 C457.52,834.31 452.97,833.76 449.87,833.56 C446.77,833.36 443.17,832.61 441.87,831.89 C440.57,831.17 436.35,830.29 432.50,829.93 C428.18,829.54 423.20,828.24 419.50,826.56 C416.07,825.00 411.44,823.75 408.70,823.64 C406.06,823.54 403.57,822.93 403.17,822.28 C402.77,821.62 401.55,821.16 400.46,821.24 C398.29,821.40 389.80,818.24 380.59,813.83 C377.34,812.27 373.20,811.00 371.40,811.00 C369.33,811.00 367.63,810.31 366.81,809.13 C366.09,808.11 364.08,806.96 362.35,806.58 C360.62,806.20 358.42,805.01 357.45,803.94 C356.48,802.87 355.13,802.00 354.45,802.00 C353.76,802.00 350.79,800.38 347.85,798.40 C344.91,796.42 341.09,794.57 339.36,794.28 C337.26,793.94 334.54,792.01 331.14,788.47 C328.35,785.54 325.26,782.90 324.28,782.58 C321.98,781.84 315.00,775.42 315.00,774.05 C315.00,773.47 314.41,773.00 313.70,773.00 C312.44,773.00 304.54,767.67 302.50,765.45 C301.95,764.85 300.24,763.58 298.71,762.63 C297.17,761.67 295.46,759.72 294.92,758.28 C293.81,755.38 292.07,753.83 287.31,751.52 C285.56,750.66 283.86,749.14 283.55,748.14 C283.23,747.14 281.85,745.72 280.48,744.99 C279.12,744.26 278.00,743.30 278.00,742.86 C278.00,741.93 272.86,735.93 268.25,731.49 C266.46,729.77 265.00,727.76 265.00,727.02 C265.00,726.29 263.20,724.15 261.00,722.27 C258.80,720.38 257.00,718.39 257.00,717.83 C257.00,717.27 254.52,712.73 251.50,707.73 C248.48,702.74 246.00,698.14 246.00,697.50 C246.00,696.87 244.81,695.26 243.36,693.92 C241.91,692.59 239.89,689.65 238.88,687.38 C237.86,685.12 236.34,682.70 235.51,682.01 C234.68,681.32 234.00,680.23 234.00,679.59 C234.00,678.95 233.14,676.73 232.08,674.65 C231.02,672.58 229.85,669.06 229.47,666.84 C229.10,664.61 227.93,661.93 226.89,660.89 C224.97,658.97 218.02,640.04 218.01,636.70 C218.00,635.70 216.65,631.72 215.00,627.84 C213.35,623.96 212.00,619.73 212.00,618.43 C212.00,617.14 211.16,613.92 210.14,611.29 C209.11,608.65 207.98,603.80 207.61,600.50 C206.32,588.73 205.90,585.42 204.96,579.50 C202.64,564.79 204.17,523.38 207.88,500.50 C210.04,487.26 221.41,451.52 226.07,443.38 C227.68,440.56 229.00,437.41 229.01,436.38 C229.01,435.35 230.57,431.58 232.48,428.00 C234.39,424.42 236.90,419.61 238.06,417.30 C239.22,414.99 240.81,412.57 241.59,411.93 C242.36,411.28 243.00,410.29 243.00,409.73 C243.00,407.62 256.08,389.17 258.62,387.70 C259.38,387.26 260.00,386.17 260.00,385.29 C260.00,384.40 262.63,380.71 265.85,377.09 C269.07,373.46 272.00,369.57 272.36,368.44 C272.96,366.54 289.28,350.04 300.00,340.49 C312.86,329.03 336.49,311.00 338.65,311.00 C339.03,311.00 340.05,310.36 340.92,309.59 C342.84,307.87 366.16,296.13 374.50,292.68 C394.26,284.51 414.33,278.00 419.74,278.00 C421.61,278.00 424.11,277.47 425.32,276.82 C426.52,276.17 436.05,274.11 446.50,272.24 C462.77,269.32 468.52,268.76 486.57,268.30 C506.16,267.80 508.79,267.95 524.07,270.45 C564.81,277.13 585.35,283.11 613.99,296.66 C623.41,301.12 643.76,312.44 649.50,316.42 C658.48,322.65 675.02,335.23 678.50,338.48 C701.08,359.59 720.06,382.06 732.14,402.00 C734.31,405.58 737.33,410.52 738.86,413.00 C747.87,427.58 761.96,458.98 764.16,469.36 C764.75,472.19 765.94,475.85 766.79,477.50 C767.64,479.15 768.42,482.30 768.52,484.50 C768.63,486.70 769.48,492.33 770.42,497.00 C776.62,527.91 778.35,555.38 775.43,577.00 C774.58,583.33 773.73,590.30 773.54,592.50 C772.73,601.91 771.00,611.76 769.55,615.22 C768.70,617.26 768.01,619.74 768.01,620.72 C768.03,623.11 764.47,634.57 760.46,645.00 C758.66,649.67 756.87,655.08 756.48,657.00 C755.85,660.07 745.53,682.94 742.94,687.00 C742.42,687.83 740.64,690.53 738.99,693.00 C737.34,695.47 735.70,698.62 735.34,700.00 C734.99,701.38 733.67,703.74 732.42,705.24 C731.16,706.75 729.84,708.92 729.48,710.05 C729.12,711.19 727.75,712.52 726.44,713.02 C725.06,713.55 723.76,715.09 723.36,716.69 C722.98,718.20 721.28,720.84 719.59,722.55 C715.29,726.87 712.14,730.81 709.23,735.49 C707.14,738.85 704.16,742.23 696.50,749.91 C690.77,755.65 679.53,765.61 677.13,767.06 C675.47,768.08 673.36,770.05 672.44,771.45 C671.52,772.85 669.95,774.00 668.94,774.00 C667.93,774.00 666.52,775.23 665.80,776.75 C665.01,778.40 663.51,779.64 662.06,779.84 C660.73,780.03 658.82,781.23 657.81,782.52 C656.80,783.80 654.60,785.15 652.93,785.52 C651.03,785.93 649.55,787.06 649.00,788.51 C648.51,789.78 647.08,791.15 645.81,791.55 C644.54,791.95 643.19,792.75 642.81,793.34 C642.43,793.93 640.55,794.31 638.63,794.18 C635.69,793.98 634.68,794.51 632.31,797.47 C630.77,799.41 628.71,801.00 627.74,801.00 C626.77,801.00 625.21,801.90 624.27,803.00 C623.33,804.10 621.35,805.00 619.88,805.00 C618.42,805.00 616.96,805.65 616.66,806.44 C616.10,807.90 611.62,809.43 604.73,810.51 C602.61,810.84 599.46,812.42 597.54,814.10 C593.75,817.42 589.37,819.00 583.92,819.00 C581.18,819.00 579.69,819.72 577.62,822.04 C575.36,824.58 574.21,825.07 570.70,824.96 C563.03,824.74 552.55,826.28 549.01,828.15 C547.10,829.17 544.50,830.00 543.24,830.00 C541.98,830.00 538.60,830.83 535.72,831.84 C532.85,832.85 527.84,833.76 524.60,833.87 C521.36,833.97 518.22,834.37 517.61,834.74 ZM 467.00 789.98 C471.52,791.40 505.80,790.28 515.00,788.42 C519.67,787.48 525.67,786.77 528.33,786.86 C530.99,786.94 535.49,786.38 538.33,785.60 C541.17,784.83 546.88,783.46 551.00,782.56 C555.12,781.65 560.53,780.07 563.00,779.04 C565.47,778.01 570.25,776.20 573.61,775.01 C576.97,773.83 582.60,771.09 586.11,768.93 C589.63,766.77 593.13,765.00 593.90,765.00 C594.66,765.00 597.81,763.32 600.90,761.27 C603.98,759.21 607.84,757.46 609.48,757.37 C611.45,757.27 613.32,756.18 615.00,754.16 C618.29,750.23 624.54,746.00 627.07,746.00 C628.22,746.00 629.53,744.93 630.21,743.44 C630.91,741.90 632.47,740.66 634.11,740.33 C635.91,739.97 637.04,738.97 637.44,737.39 C637.77,736.08 638.49,735.00 639.05,735.00 C640.11,735.00 643.59,731.94 652.38,723.25 C655.31,720.36 658.22,718.00 658.85,718.00 C659.48,718.00 660.00,717.66 660.00,717.25 C660.00,716.83 662.36,713.94 665.25,710.83 C674.05,701.33 677.00,697.85 677.00,696.97 C677.00,696.51 677.90,695.85 679.00,695.50 C680.23,695.11 681.00,693.99 681.00,692.59 C681.00,691.33 682.46,688.71 684.25,686.77 C689.26,681.31 693.00,675.85 693.00,673.99 C693.00,673.07 693.90,671.50 695.00,670.50 C696.10,669.50 697.00,668.15 697.00,667.48 C697.00,666.82 698.06,664.72 699.35,662.82 C700.64,660.92 701.97,658.24 702.32,656.86 C702.67,655.48 704.11,652.65 705.52,650.56 C706.94,648.48 708.37,645.36 708.71,643.63 C709.05,641.91 710.32,638.92 711.54,637.00 C712.75,635.08 714.28,631.25 714.94,628.50 C715.59,625.75 716.75,621.25 717.51,618.50 C718.27,615.75 719.42,610.80 720.07,607.50 C720.71,604.20 721.92,600.16 722.76,598.52 C724.91,594.33 725.90,538.22 724.00,527.66 C719.08,500.20 709.79,471.62 698.27,448.50 C694.86,441.66 682.62,422.48 676.57,414.50 C661.46,394.56 641.37,375.47 623.00,363.59 C620.52,362.00 617.30,359.87 615.82,358.87 C612.41,356.55 607.42,353.70 598.00,348.69 C584.69,341.61 579.60,339.24 574.39,337.70 C571.58,336.87 568.43,335.72 567.39,335.13 C566.35,334.55 561.67,333.00 557.00,331.67 C549.35,329.50 543.08,328.10 522.00,323.82 C512.32,321.85 471.74,322.18 457.00,324.34 C444.98,326.11 428.79,329.92 422.99,332.36 C420.64,333.35 418.84,333.51 417.19,332.88 C415.40,332.20 413.99,332.45 411.64,333.86 C409.91,334.90 405.35,336.98 401.50,338.49 C397.65,339.99 393.70,342.07 392.72,343.10 C391.74,344.13 389.72,345.25 388.22,345.59 C380.25,347.38 378.16,348.17 376.50,350.00 C375.51,351.10 374.14,352.00 373.47,352.00 C372.80,352.00 370.28,353.80 367.88,356.00 C365.47,358.21 361.59,360.91 359.26,362.00 C356.93,363.10 352.27,366.14 348.91,368.75 C345.55,371.36 340.27,375.46 337.18,377.85 C334.09,380.24 330.36,383.84 328.87,385.86 C326.10,389.63 318.79,396.00 317.24,396.00 C316.76,396.00 315.64,397.52 314.75,399.39 C313.87,401.25 311.19,405.02 308.82,407.77 C306.44,410.51 302.92,415.07 301.00,417.89 C299.08,420.71 296.24,424.67 294.71,426.70 C293.17,428.73 290.79,432.63 289.41,435.37 C288.03,438.11 286.30,440.83 285.56,441.42 C284.83,442.02 283.67,444.30 283.00,446.50 C282.33,448.70 280.67,452.52 279.32,455.00 C277.96,457.48 275.49,462.65 273.81,466.50 C272.14,470.35 270.14,474.21 269.38,475.08 C268.62,475.95 268.00,477.71 268.00,478.99 C268.00,481.47 265.87,489.59 263.28,497.00 C262.42,499.48 261.38,503.98 260.98,507.00 C260.58,510.02 259.27,519.47 258.06,528.00 C256.18,541.25 255.94,546.29 256.40,562.74 C256.72,573.95 257.53,584.39 258.35,587.74 C259.12,590.91 260.30,596.88 260.96,601.00 C262.81,612.40 267.63,631.22 269.84,635.60 C270.92,637.74 273.72,644.00 276.06,649.50 C278.40,655.00 281.14,660.43 282.16,661.56 C283.17,662.70 284.00,665.05 284.00,666.78 C284.00,668.87 284.65,670.28 285.93,670.96 C287.00,671.53 288.17,673.01 288.55,674.25 C288.92,675.49 290.05,677.40 291.05,678.50 C292.05,679.60 293.36,681.62 293.96,683.00 C295.13,685.68 299.06,691.55 301.33,694.00 C302.10,694.83 303.29,696.59 303.98,697.91 C308.74,707.02 326.60,726.30 336.15,732.64 C339.81,735.07 343.06,737.72 343.37,738.53 C343.68,739.34 345.53,740.76 347.47,741.69 C349.41,742.61 351.00,743.73 351.00,744.17 C351.00,744.61 353.17,746.06 355.81,747.41 C358.46,748.75 361.21,750.55 361.94,751.42 C362.66,752.29 363.88,753.00 364.65,753.00 C365.43,753.00 366.33,753.69 366.65,754.54 C366.98,755.39 368.96,756.96 371.07,758.03 C373.17,759.10 376.56,761.12 378.60,762.50 C380.65,763.89 384.09,765.31 386.24,765.65 C389.43,766.16 390.47,766.91 391.77,769.64 C393.37,773.01 394.16,773.37 399.23,773.03 C402.87,772.79 408.95,774.93 411.83,777.45 C413.12,778.58 415.01,779.36 416.03,779.20 C417.05,779.03 419.24,779.59 420.90,780.45 C422.55,781.30 425.84,782.02 428.20,782.03 C430.57,782.05 434.30,782.94 436.50,784.00 C438.70,785.06 441.68,785.95 443.13,785.97 C444.57,785.98 447.37,786.67 449.35,787.50 C451.32,788.33 455.54,789.04 458.72,789.10 C461.90,789.15 465.62,789.55 467.00,789.98 ZM 571.23 820.82 C570.91,821.78 571.71,822.05 574.14,821.82 C575.99,821.64 577.39,821.05 577.25,820.50 C576.88,819.01 571.74,819.29 571.23,820.82 ZM 404.00 818.50 C403.25,819.41 403.17,820.00 403.80,820.00 C405.63,820.00 408.00,818.81 408.00,817.89 C408.00,816.46 405.36,816.86 404.00,818.50 Z" fill="rgb(24,166,223)"/>
<path d="M 479.12 518.39 C476.72,519.28 474.58,520.00 474.37,520.00 C474.17,520.00 474.00,503.87 474.00,484.15 L 474.00 448.30 L 476.84 444.40 C480.71,439.07 487.62,433.00 489.81,433.00 C492.61,433.00 499.71,438.72 503.27,443.85 L 506.50 448.50 L 506.79 484.25 C506.96,505.38 506.70,520.00 506.16,520.00 C505.66,520.00 503.50,519.27 501.38,518.38 C496.36,516.29 484.85,516.29 479.12,518.39 Z" fill="rgb(44,73,112)"/>
<path d="M 520.00 269.80 C508.13,267.93 504.28,267.85 486.57,268.30 C473.79,268.62 467.17,269.00 458.62,270.23 C460.25,269.76 460.21,268.80 459.69,261.44 C459.37,256.80 459.37,249.18 459.70,244.50 L 460.30 236.00 L 520.00 236.00 ZM 310.21 331.82 C306.50,334.86 302.96,337.85 300.00,340.49 C289.28,350.04 272.96,366.54 272.36,368.44 C272.26,368.77 271.93,369.33 271.45,370.06 C273.53,366.48 272.41,364.50 268.73,360.40 C266.30,357.71 262.97,353.97 261.32,352.09 L 258.33 348.69 L 275.37 331.95 L 292.41 315.21 L 301.35 323.56 ZM 712.38 374.43 C702.59,362.48 691.11,350.27 678.50,338.48 C676.35,336.47 669.20,330.89 661.93,325.45 L 670.89 332.06 L 679.54 323.55 C686.39,316.80 688.53,315.22 689.84,315.95 C690.76,316.46 698.24,323.65 706.48,331.93 L 721.47 346.99 L 713.23 355.27 C708.70,359.82 705.00,363.93 705.00,364.41 C705.00,364.89 707.40,368.25 710.34,371.89 C711.02,372.72 711.69,373.57 712.38,374.43 ZM 569.04 279.71 C559.25,277.05 548.55,274.74 535.78,272.46 C547.28,274.30 558.31,276.69 569.04,279.71 ZM 440.60 273.33 C434.65,274.48 429.56,275.57 426.99,276.27 C429.35,275.51 434.87,274.31 440.60,273.33 ZM 329.87 316.57 C325.87,319.48 320.93,323.25 315.96,327.19 C320.09,323.79 325.41,319.76 329.87,316.57 ZM 636.72 308.74 C631.12,305.57 624.82,302.14 619.65,299.48 C624.75,302.05 629.86,304.81 634.99,307.74 C635.59,308.09 636.17,308.42 636.72,308.74 ZM 424.57 277.15 C423.25,277.64 421.28,278.00 419.74,278.00 C417.16,278.00 411.25,279.48 403.63,281.91 C411.23,279.49 417.12,278.00 419.64,278.00 C420.97,278.00 422.91,277.65 424.57,277.15 Z" fill="rgb(72,113,164)"/>
<path d="M 517.61 834.74 C518.22,834.37 521.36,833.97 524.60,833.87 C527.84,833.76 532.85,832.85 535.72,831.84 C538.60,830.83 541.98,830.00 543.24,830.00 C544.50,830.00 547.10,829.17 549.01,828.15 C552.55,826.28 563.03,824.74 570.70,824.96 C574.21,825.07 575.36,824.58 577.62,822.04 C579.69,819.72 581.18,819.00 583.92,819.00 C589.37,819.00 593.75,817.42 597.54,814.10 C599.46,812.42 602.61,810.84 604.73,810.51 C611.62,809.43 616.10,807.90 616.66,806.44 C616.96,805.65 618.42,805.00 619.88,805.00 C621.35,805.00 623.33,804.10 624.27,803.00 C625.21,801.90 626.77,801.00 627.74,801.00 C628.71,801.00 630.77,799.41 632.31,797.47 C634.68,794.51 635.69,793.98 638.63,794.18 C640.55,794.31 642.43,793.93 642.81,793.34 C643.19,792.75 644.54,791.95 645.81,791.55 C647.08,791.15 648.51,789.78 649.00,788.51 C649.55,787.06 651.03,785.93 652.93,785.52 C654.60,785.15 656.80,783.80 657.81,782.52 C658.82,781.23 660.73,780.03 662.06,779.84 C663.51,779.64 665.01,778.40 665.80,776.75 C666.52,775.23 667.93,774.00 668.94,774.00 C669.95,774.00 671.52,772.85 672.44,771.45 C673.36,770.05 675.47,768.08 677.13,767.06 C679.53,765.61 690.77,755.65 696.50,749.91 C704.16,742.23 707.14,738.85 709.23,735.49 C712.14,730.81 715.29,726.87 719.59,722.55 C721.28,720.84 722.98,718.20 723.36,716.69 C723.76,715.09 725.06,713.55 726.44,713.02 C727.75,712.52 729.12,711.19 729.48,710.05 C729.84,708.92 731.16,706.75 732.42,705.24 C733.67,703.74 734.99,701.38 735.34,700.00 C735.70,698.62 737.34,695.47 738.99,693.00 C740.64,690.53 742.42,687.83 742.94,687.00 C745.53,682.94 755.85,660.07 756.48,657.00 C756.87,655.08 758.66,649.67 760.46,645.00 C764.47,634.57 768.03,623.11 768.01,620.72 C768.01,619.74 768.70,617.26 769.55,615.22 C771.00,611.76 772.73,601.91 773.54,592.50 C773.73,590.30 774.58,583.33 775.43,577.00 C778.35,555.38 776.62,527.91 770.42,497.00 C769.48,492.33 768.63,486.70 768.52,484.50 C768.43,482.59 767.83,479.98 767.12,478.24 C771.48,487.22 776.50,514.87 778.05,538.50 C781.58,592.36 766.24,654.62 737.91,701.50 C725.66,721.76 712.47,738.55 695.50,755.50 C658.19,792.75 613.23,817.92 560.80,830.91 C543.37,835.22 538.29,836.08 516.00,838.49 C459.28,844.60 393.35,830.01 344.45,800.53 C311.13,780.45 280.23,752.45 258.21,722.37 C238.73,695.77 222.31,662.45 213.66,632.00 C193.86,562.26 199.74,491.18 230.47,428.95 C239.77,410.12 259.83,380.31 269.43,371.05 C270.68,369.85 271.78,368.56 272.42,367.61 C272.29,368.36 271.97,369.16 271.45,370.06 C270.27,371.82 268.13,374.52 265.85,377.09 C262.63,380.71 260.00,384.40 260.00,385.29 C260.00,386.17 259.38,387.26 258.62,387.70 C256.08,389.17 243.00,407.62 243.00,409.73 C243.00,410.29 242.36,411.28 241.59,411.93 C240.81,412.57 239.22,414.99 238.06,417.30 C236.90,419.61 234.39,424.42 232.48,428.00 C230.57,431.58 229.01,435.35 229.01,436.38 C229.00,437.41 227.68,440.56 226.07,443.38 C221.41,451.52 210.04,487.26 207.88,500.50 C204.17,523.38 202.64,564.79 204.96,579.50 C205.90,585.42 206.32,588.73 207.61,600.50 C207.98,603.80 209.11,608.65 210.14,611.29 C211.16,613.92 212.00,617.14 212.00,618.43 C212.00,619.73 213.35,623.96 215.00,627.84 C216.65,631.72 218.00,635.70 218.01,636.70 C218.02,640.04 224.97,658.97 226.89,660.89 C227.93,661.93 229.10,664.61 229.47,666.84 C229.85,669.06 231.02,672.58 232.08,674.65 C233.14,676.73 234.00,678.95 234.00,679.59 C234.00,680.23 234.68,681.32 235.51,682.01 C236.34,682.70 237.86,685.12 238.88,687.38 C239.89,689.65 241.91,692.59 243.36,693.92 C244.81,695.26 246.00,696.87 246.00,697.50 C246.00,698.14 248.48,702.74 251.50,707.73 C254.52,712.73 257.00,717.27 257.00,717.83 C257.00,718.39 258.80,720.38 261.00,722.27 C263.20,724.15 265.00,726.29 265.00,727.02 C265.00,727.76 266.46,729.77 268.25,731.49 C272.86,735.93 278.00,741.93 278.00,742.86 C278.00,743.30 279.12,744.26 280.48,744.99 C281.85,745.72 283.23,747.14 283.55,748.14 C283.86,749.14 285.56,750.66 287.31,751.52 C292.07,753.83 293.81,755.38 294.92,758.28 C295.46,759.72 297.17,761.67 298.71,762.63 C300.24,763.58 301.95,764.85 302.50,765.45 C304.54,767.67 312.44,773.00 313.70,773.00 C314.41,773.00 315.00,773.47 315.00,774.05 C315.00,775.42 321.98,781.84 324.28,782.58 C325.26,782.90 328.35,785.54 331.14,788.47 C334.54,792.01 337.26,793.94 339.36,794.28 C341.09,794.57 344.91,796.42 347.85,798.40 C350.79,800.38 353.76,802.00 354.45,802.00 C355.13,802.00 356.48,802.87 357.45,803.94 C358.42,805.01 360.62,806.20 362.35,806.58 C364.08,806.96 366.09,808.11 366.81,809.13 C367.63,810.31 369.33,811.00 371.40,811.00 C373.20,811.00 377.34,812.27 380.59,813.83 C389.80,818.24 398.29,821.40 400.46,821.24 C401.55,821.16 402.77,821.62 403.17,822.28 C403.57,822.93 406.06,823.54 408.70,823.64 C411.44,823.75 416.07,825.00 419.50,826.56 C423.20,828.24 428.18,829.54 432.50,829.93 C436.35,830.29 440.57,831.17 441.87,831.89 C443.17,832.61 446.77,833.36 449.87,833.56 C452.97,833.76 457.52,834.31 460.00,834.78 C465.24,835.78 515.99,835.74 517.61,834.74 ZM 467.00 789.98 C465.62,789.55 461.90,789.15 458.72,789.10 C455.54,789.04 451.32,788.33 449.35,787.50 C447.37,786.67 444.57,785.98 443.13,785.97 C441.68,785.95 438.70,785.06 436.50,784.00 C434.30,782.94 430.57,782.05 428.20,782.03 C425.84,782.02 422.55,781.30 420.90,780.45 C419.24,779.59 417.05,779.03 416.03,779.20 C415.01,779.36 413.12,778.58 411.83,777.45 C408.95,774.93 402.87,772.79 399.23,773.03 C394.16,773.37 393.37,773.01 391.77,769.64 C390.47,766.91 389.43,766.16 386.24,765.65 C384.09,765.31 380.65,763.89 378.60,762.50 C376.56,761.12 373.17,759.10 371.07,758.03 C368.96,756.96 366.98,755.39 366.65,754.54 C366.33,753.69 365.43,753.00 364.65,753.00 C363.88,753.00 362.66,752.29 361.94,751.42 C361.21,750.55 358.46,748.75 355.81,747.41 C353.17,746.06 351.00,744.61 351.00,744.17 C351.00,743.73 349.41,742.61 347.47,741.69 C345.53,740.76 343.68,739.34 343.37,738.53 C343.06,737.72 339.81,735.07 336.15,732.64 C326.60,726.30 308.74,707.02 303.98,697.91 C303.29,696.59 302.10,694.83 301.33,694.00 C299.06,691.55 295.13,685.68 293.96,683.00 C293.36,681.62 292.05,679.60 291.05,678.50 C290.05,677.40 288.92,675.49 288.55,674.25 C288.17,673.01 287.00,671.53 285.93,670.96 C284.65,670.28 284.00,668.87 284.00,666.78 C284.00,665.05 283.17,662.70 282.16,661.56 C281.14,660.43 278.40,655.00 276.06,649.50 C273.72,644.00 270.92,637.74 269.84,635.60 C267.63,631.22 262.81,612.40 260.96,601.00 C260.30,596.88 259.12,590.91 258.35,587.74 C257.53,584.39 256.72,573.95 256.40,562.74 C255.94,546.29 256.18,541.25 258.06,528.00 C259.27,519.47 260.58,510.02 260.98,507.00 C261.38,503.98 262.42,499.48 263.28,497.00 C265.87,489.59 268.00,481.47 268.00,478.99 C268.00,477.71 268.62,475.95 269.38,475.08 C270.14,474.21 272.14,470.35 273.81,466.50 C275.49,462.65 277.96,457.48 279.32,455.00 C280.67,452.52 282.33,448.70 283.00,446.50 C283.67,444.30 284.83,442.02 285.56,441.42 C286.30,440.83 288.03,438.11 289.41,435.37 C290.79,432.63 293.17,428.73 294.71,426.70 C296.24,424.67 299.08,420.71 301.00,417.89 C302.92,415.07 306.44,410.51 308.82,407.77 C311.19,405.02 313.87,401.25 314.75,399.39 C315.64,397.52 316.76,396.00 317.24,396.00 C318.79,396.00 326.10,389.63 328.87,385.86 C330.36,383.84 334.09,380.24 337.18,377.85 C340.27,375.46 345.55,371.36 348.91,368.75 C352.27,366.14 356.93,363.10 359.26,362.00 C361.59,360.91 365.47,358.21 367.88,356.00 C370.28,353.80 372.80,352.00 373.47,352.00 C374.14,352.00 375.51,351.10 376.50,350.00 C378.16,348.17 380.25,347.38 388.22,345.59 C389.72,345.25 391.74,344.13 392.72,343.10 C393.70,342.07 397.65,339.99 401.50,338.49 C405.35,336.98 409.91,334.90 411.64,333.86 C413.99,332.45 415.40,332.20 417.19,332.88 C418.29,333.30 419.47,333.37 420.83,333.07 C406.83,337.93 389.55,345.26 381.69,349.70 C377.18,352.24 371.17,355.57 368.32,357.09 C365.46,358.62 360.69,361.81 357.71,364.18 C354.73,366.56 348.86,371.14 344.68,374.36 C329.10,386.36 308.90,408.94 295.80,429.00 C251.99,496.07 246.34,581.28 280.92,653.51 C300.15,693.68 327.38,724.87 364.50,749.23 C393.55,768.30 426.75,780.72 461.50,785.52 C484.32,788.67 518.69,786.76 542.45,781.01 C612.30,764.13 671.51,716.34 702.42,651.90 C722.87,609.27 728.67,567.13 720.92,517.50 C719.77,510.10 718.48,503.52 716.89,497.18 C719.78,507.27 722.19,517.54 724.00,527.66 C725.90,538.22 724.91,594.33 722.76,598.52 C721.92,600.16 720.71,604.20 720.07,607.50 C719.42,610.80 718.27,615.75 717.51,618.50 C716.75,621.25 715.59,625.75 714.94,628.50 C714.28,631.25 712.75,635.08 711.54,637.00 C710.32,638.92 709.05,641.91 708.71,643.63 C708.37,645.36 706.94,648.48 705.52,650.56 C704.11,652.65 702.67,655.48 702.32,656.86 C701.97,658.24 700.64,660.92 699.35,662.82 C698.06,664.72 697.00,666.82 697.00,667.48 C697.00,668.15 696.10,669.50 695.00,670.50 C693.90,671.50 693.00,673.07 693.00,673.99 C693.00,675.85 689.26,681.31 684.25,686.77 C682.46,688.71 681.00,691.33 681.00,692.59 C681.00,693.99 680.23,695.11 679.00,695.50 C677.90,695.85 677.00,696.51 677.00,696.97 C677.00,697.85 674.05,701.33 665.25,710.83 C662.36,713.94 660.00,716.83 660.00,717.25 C660.00,717.66 659.48,718.00 658.85,718.00 C658.22,718.00 655.31,720.36 652.38,723.25 C643.59,731.94 640.11,735.00 639.05,735.00 C638.49,735.00 637.77,736.08 637.44,737.39 C637.04,738.97 635.91,739.97 634.11,740.33 C632.47,740.66 630.91,741.90 630.21,743.44 C629.53,744.93 628.22,746.00 627.07,746.00 C624.54,746.00 618.29,750.23 615.00,754.16 C613.32,756.18 611.45,757.27 609.48,757.37 C607.84,757.46 603.98,759.21 600.90,761.27 C597.81,763.32 594.66,765.00 593.90,765.00 C593.13,765.00 589.63,766.77 586.11,768.93 C582.60,771.09 576.97,773.83 573.61,775.01 C570.25,776.20 565.47,778.01 563.00,779.04 C560.53,780.07 555.12,781.65 551.00,782.56 C546.88,783.46 541.17,784.83 538.33,785.60 C535.49,786.38 530.99,786.94 528.33,786.86 C525.67,786.77 519.67,787.48 515.00,788.42 C505.80,790.28 471.52,791.40 467.00,789.98 ZM 424.57 277.15 C422.91,277.65 420.97,278.00 419.64,278.00 C417.23,278.00 411.75,279.36 404.64,281.59 C414.33,278.40 422.71,276.03 426.65,275.50 C429.03,275.18 434.07,274.40 439.45,273.53 C434.14,274.47 429.19,275.56 426.99,276.27 C426.14,276.50 425.56,276.69 425.32,276.82 C425.10,276.94 424.85,277.05 424.57,277.15 ZM 571.23 820.82 C571.74,819.29 576.88,819.01 577.25,820.50 C577.39,821.05 575.99,821.64 574.14,821.82 C571.71,822.05 570.91,821.78 571.23,820.82 ZM 404.00 818.50 C405.36,816.86 408.00,816.46 408.00,817.89 C408.00,818.81 405.63,820.00 403.80,820.00 C403.17,820.00 403.25,819.41 404.00,818.50 ZM 704.23 461.40 C700.76,453.60 696.93,446.07 692.69,438.77 C695.13,442.77 697.16,446.28 698.27,448.50 C700.33,452.64 702.32,456.95 704.23,461.40 ZM 644.29 379.88 C637.05,373.70 628.93,367.43 623.00,363.59 C629.97,368.10 637.19,373.65 644.29,379.88 ZM 679.67 418.78 C675.49,413.02 671.01,407.37 666.20,401.82 C669.84,405.96 673.32,410.21 676.57,414.50 C677.48,415.70 678.53,417.15 679.67,418.78 ZM 455.26 324.61 C455.85,324.52 456.43,324.43 457.00,324.34 C460.19,323.88 464.58,323.49 469.61,323.20 C464.52,323.53 459.79,323.99 455.26,324.61 ZM 488.88 322.56 C498.83,322.43 508.68,322.59 515.42,323.06 C510.08,322.70 502.41,322.52 492.50,322.54 C491.27,322.54 490.07,322.55 488.88,322.56 ZM 423.42 332.19 C425.38,331.41 428.31,330.50 431.78,329.57 C429.03,330.37 426.26,331.23 423.42,332.19 ZM 766.56 477.03 C765.74,475.22 764.70,471.94 764.16,469.36 C763.83,467.83 763.25,465.84 762.46,463.51 C763.25,465.84 763.83,467.83 764.16,469.36 C764.67,471.77 765.67,474.95 766.56,477.03 ZM 270.86 362.95 C270.21,362.12 269.46,361.22 268.66,360.33 C266.27,357.67 262.97,353.97 261.32,352.09 C262.97,353.97 266.30,357.71 268.73,360.40 C269.58,361.35 270.29,362.18 270.86,362.95 ZM 458.60 270.24 C459.15,270.08 459.51,269.87 459.73,269.38 C459.52,269.86 459.16,270.07 458.62,270.23 Z" fill="rgb(50,157,199)"/>
<path d="M 520.00 269.80 L 520.00 236.00 L 460.30 236.00 L 459.70 244.50 C459.46,247.80 459.40,252.56 459.49,256.71 C459.45,255.41 459.40,254.05 459.34,252.67 L 458.69 236.00 L 452.39 236.00 C434.25,236.00 424.45,229.21 420.45,213.86 C418.18,205.14 418.85,170.35 421.45,162.00 C424.95,150.75 430.86,145.42 443.01,142.56 C448.28,141.32 457.25,141.03 490.57,141.01 C515.99,141.01 533.88,141.42 537.53,142.09 C549.62,144.33 556.97,150.12 561.06,160.67 C562.99,165.65 563.39,168.93 563.77,183.14 C564.46,208.39 562.26,219.97 555.32,227.60 C549.91,233.54 544.43,234.92 522.25,235.94 C521.30,235.99 521.00,240.09 521.00,252.98 C521.00,255.00 520.98,256.79 520.97,258.36 C520.91,265.13 520.88,268.09 522.35,269.59 C522.65,269.90 523.03,270.15 523.47,270.36 C522.24,270.15 521.09,269.97 520.00,269.80 ZM 443.58 211.44 C444.98,212.84 450.41,212.99 491.83,212.76 L 538.50 212.50 L 540.50 208.50 C542.30,204.91 542.49,202.66 542.37,186.55 L 542.23 168.60 L 539.10 165.80 L 535.97 163.00 L 491.23 163.02 C466.63,163.02 446.00,163.36 445.39,163.77 C444.78,164.17 443.43,166.07 442.39,168.00 C440.75,171.03 440.50,173.71 440.51,188.00 C440.51,205.28 440.98,208.84 443.58,211.44 ZM 310.21 331.82 L 292.41 315.21 L 275.37 331.95 L 258.33 348.69 L 261.32 352.09 C262.97,353.97 266.27,357.67 268.66,360.33 C269.46,361.22 270.21,362.12 270.86,362.95 C271.23,363.44 271.54,363.91 271.78,364.36 C268.40,359.98 259.04,350.00 258.03,350.00 C257.64,350.00 255.40,351.79 253.04,353.97 C242.25,363.92 229.91,362.81 226.89,351.60 C225.20,345.31 228.16,340.38 240.76,328.50 C246.59,323.00 258.82,311.01 267.93,301.86 C277.05,292.71 285.56,284.90 286.85,284.51 C290.34,283.46 297.51,284.83 300.41,287.10 C301.81,288.21 303.46,290.82 304.09,292.90 C305.06,296.16 304.93,297.37 303.16,301.38 C302.02,303.95 299.42,308.10 297.37,310.59 L 293.66 315.12 L 302.00 323.50 L 310.25 331.79 ZM 705.07 364.65 C705.03,364.54 705.00,364.46 705.00,364.41 C705.00,363.93 708.70,359.82 713.23,355.27 L 721.47 346.99 L 706.48 331.93 C698.24,323.65 690.76,316.46 689.84,315.95 C688.54,315.23 686.41,316.79 679.62,323.46 L 688.33 314.89 L 682.75 309.20 C676.21,302.52 674.60,298.22 676.53,292.59 C678.25,287.59 680.58,285.21 685.09,283.86 C688.28,282.90 689.40,283.01 692.44,284.61 C694.41,285.65 708.40,298.61 723.52,313.42 C746.69,336.10 751.18,340.96 752.09,344.33 C753.54,349.73 752.43,354.72 749.00,358.15 C743.86,363.30 736.59,361.51 727.41,352.83 L 721.85 347.57 L 713.32 356.25 ZM 612.30 452.38 C604.41,456.38 594.14,452.23 595.57,445.62 C598.14,433.71 613.34,418.01 622.30,418.00 C629.76,418.00 632.95,421.17 632.99,428.65 C633.01,434.36 621.27,447.82 612.30,452.38 ZM 680.00 565.26 C674.12,567.21 661.05,568.03 653.50,566.92 C648.70,566.22 646.95,565.44 644.75,563.01 C639.55,557.26 642.12,548.43 649.72,545.93 C654.76,544.26 671.54,544.27 676.50,545.93 C678.70,546.67 681.74,548.15 683.25,549.21 C685.65,550.89 686.00,551.79 685.98,556.32 C685.98,559.17 685.64,562.01 685.23,562.63 C684.83,563.26 682.47,564.44 680.00,565.26 ZM 332.38 565.31 C326.61,568.29 312.36,568.21 301.50,565.13 C295.08,563.32 294.86,562.99 295.20,555.91 L 295.50 549.50 L 301.86 547.37 C309.86,544.69 324.30,543.46 329.94,544.98 C335.01,546.35 338.01,550.65 337.96,556.50 C337.93,561.14 336.71,563.07 332.38,565.31 ZM 497.15 748.75 C496.12,750.65 495.11,751.00 490.71,750.97 C481.16,750.91 478.89,747.51 478.20,732.15 C477.59,718.72 479.03,712.00 483.27,708.43 C485.94,706.18 487.08,705.86 490.91,706.29 C494.03,706.64 496.01,707.53 497.33,709.15 C499.08,711.31 499.20,712.91 498.81,729.00 C498.53,740.13 497.93,747.32 497.15,748.75 ZM 629.25 690.65 C625.08,693.71 620.86,694.20 617.31,692.04 C614.09,690.08 601.46,676.05 597.23,669.72 C594.91,666.26 594.80,665.61 595.89,661.98 C597.23,657.49 600.89,655.00 606.14,655.00 C610.35,655.00 614.25,657.80 620.94,665.64 C632.11,678.73 634.73,686.62 629.25,690.65 ZM 381.89 451.10 C376.60,456.04 371.15,454.65 361.58,445.90 C353.01,438.08 349.99,433.56 350.03,428.60 C350.07,424.10 351.13,422.24 355.17,419.61 C358.79,417.26 364.28,418.77 370.69,423.89 C377.13,429.03 379.34,431.59 382.41,437.40 C385.91,444.02 385.78,447.47 381.89,451.10 ZM 366.00 691.87 C361.71,694.47 359.39,694.54 355.50,692.16 C346.78,686.82 347.34,681.50 357.79,670.46 C369.10,658.51 374.71,656.36 380.92,661.59 C385.27,665.25 385.24,670.97 380.84,677.10 C376.65,682.94 370.31,689.25 366.00,691.87 ZM 496.24 400.03 C493.85,401.91 489.24,402.48 486.00,401.29 C477.80,398.30 474.80,383.52 480.12,372.33 C482.74,366.81 486.16,364.62 491.15,365.29 C495.68,365.90 498.24,368.55 500.46,374.93 C503.73,384.34 501.84,395.62 496.24,400.03 ZM 459.56 258.88 C459.59,259.80 459.64,260.66 459.69,261.44 C460.00,265.81 460.14,267.92 459.86,269.02 C459.82,269.15 459.78,269.28 459.73,269.38 C459.73,269.39 459.72,269.40 459.72,269.41 C459.69,269.48 459.65,269.54 459.61,269.60 C459.74,268.72 459.72,264.49 459.56,258.88 ZM 712.13 374.12 C711.53,373.36 710.93,372.62 710.34,371.89 C709.31,370.61 708.34,369.36 707.51,368.25 C708.83,369.87 710.41,371.88 712.13,374.12 ZM 458.60 270.24 C457.86,270.34 457.11,270.45 456.34,270.57 C457.89,270.25 458.98,270.00 459.39,269.85 C459.19,270.03 458.93,270.14 458.60,270.24 ZM 569.04 279.71 L 569.04 279.71 C560.62,277.34 552.01,275.36 543.14,273.72 C552.11,275.37 560.81,277.38 569.35,279.79 C569.25,279.76 569.15,279.74 569.04,279.71 ZM 431.88 274.73 C430.26,274.98 428.84,275.19 427.73,275.35 C428.44,275.22 429.10,275.12 429.73,275.03 C430.42,274.94 431.14,274.84 431.88,274.73 ZM 272.43 367.55 C272.43,367.57 272.42,367.59 272.42,367.61 C271.78,368.56 270.68,369.85 269.43,371.05 C270.68,369.84 271.79,368.53 272.43,367.55 ZM 406.73 280.91 C406.04,281.13 405.35,281.36 404.64,281.59 C404.32,281.70 403.99,281.80 403.66,281.91 L 403.63 281.91 C403.44,281.98 403.24,282.04 403.04,282.10 C404.29,281.69 405.52,281.30 406.73,280.91 ZM 731.92 401.64 C732.00,401.76 732.07,401.88 732.13,401.99 C734.30,405.57 737.33,410.52 738.86,413.00 C737.33,410.52 734.30,405.57 732.14,402.00 C732.07,401.88 732.00,401.76 731.92,401.64 ZM 761.63 461.15 C761.68,461.29 761.73,461.42 761.78,461.55 C761.76,461.51 761.75,461.47 761.73,461.43 C761.70,461.34 761.67,461.25 761.63,461.15 Z" fill="rgb(122,160,200)"/>
<path d="M 680.00 565.26 C682.47,564.44 684.83,563.26 685.23,562.63 C685.42,562.35 685.58,561.63 685.71,560.66 C685.37,572.59 684.58,584.35 683.49,590.00 C677.59,620.56 664.48,649.33 645.44,673.50 C637.33,683.80 614.26,706.40 606.47,711.69 C594.70,719.67 579.11,728.38 571.00,731.52 C569.08,732.26 564.13,734.28 560.01,735.99 C548.40,740.83 529.75,745.91 515.99,748.00 C508.57,749.12 501.48,749.92 495.79,750.31 C496.37,749.97 496.76,749.47 497.15,748.75 C497.93,747.32 498.53,740.13 498.81,729.00 C499.20,712.91 499.08,711.31 497.33,709.15 C496.01,707.53 494.03,706.64 490.91,706.29 C487.08,705.86 485.94,706.18 483.27,708.43 C479.03,712.00 477.59,718.72 478.20,732.15 C478.76,744.61 480.36,749.20 486.04,750.52 C484.85,750.44 483.98,750.29 483.50,750.07 C482.40,749.56 478.35,749.11 474.50,749.07 C455.21,748.87 425.78,740.46 400.15,727.81 C375.90,715.83 362.50,705.65 344.38,685.38 C339.35,679.76 327.92,664.01 322.92,655.81 C309.90,634.47 301.59,612.21 296.86,586.00 C296.03,581.45 295.58,572.15 295.47,561.81 C296.10,563.52 297.73,564.07 301.50,565.13 C312.36,568.21 326.61,568.29 332.38,565.31 C336.71,563.07 337.93,561.14 337.96,556.50 C338.01,550.65 335.01,546.35 329.94,544.98 C324.30,543.46 309.86,544.69 301.86,547.37 L 295.50 549.50 L 295.48 549.94 C295.64,537.18 296.29,524.90 297.36,519.50 C305.00,480.92 322.89,446.21 349.20,418.94 C399.53,366.75 475.06,346.50 544.71,366.50 C570.93,374.03 605.82,393.54 621.00,409.15 C629.40,417.79 629.40,417.78 639.33,427.56 C660.40,448.29 679.79,491.36 685.09,529.19 C685.76,534.01 685.99,543.22 685.87,553.21 C685.63,551.21 684.96,550.41 683.25,549.21 C681.74,548.15 678.70,546.67 676.50,545.93 C671.54,544.27 654.76,544.26 649.72,545.93 C642.12,548.43 639.55,557.26 644.75,563.01 C646.95,565.44 648.70,566.22 653.50,566.92 C661.05,568.03 674.12,567.21 680.00,565.26 ZM 416.24 630.01 C420.57,632.65 422.95,632.52 427.61,629.38 C431.95,626.47 433.39,625.00 457.50,599.15 L 474.50 580.92 L 478.50 581.71 C480.70,582.14 486.33,582.50 491.00,582.50 C498.44,582.50 500.23,582.13 505.36,579.53 C522.24,570.98 527.77,548.77 517.14,532.23 C511.41,523.30 504.95,518.57 496.32,517.17 C498.30,517.43 500.06,517.83 501.38,518.38 C503.50,519.27 505.66,520.00 506.16,520.00 C506.70,520.00 506.96,505.38 506.79,484.25 L 506.50 448.50 L 503.27 443.85 C499.71,438.72 492.61,433.00 489.81,433.00 C487.62,433.00 480.71,439.07 476.84,444.40 L 474.00 448.30 L 474.00 484.15 C474.00,503.87 474.17,520.00 474.37,520.00 C474.41,520.00 474.52,519.97 474.69,519.93 C473.80,520.31 473.06,520.70 472.55,521.08 C461.78,529.19 456.84,537.83 456.18,549.72 C455.96,553.69 456.27,558.34 456.87,560.06 C457.90,563.00 457.69,563.44 452.98,568.43 C450.24,571.33 448.00,574.01 448.00,574.39 C448.00,574.78 440.24,582.96 430.75,592.58 C414.67,608.88 408.99,616.02 409.00,619.91 C409.01,622.61 412.81,627.92 416.24,630.01 ZM 612.30 452.38 C621.27,447.82 633.01,434.36 632.99,428.65 C632.95,421.17 629.76,418.00 622.30,418.00 C613.34,418.01 598.14,433.71 595.57,445.62 C594.14,452.23 604.41,456.38 612.30,452.38 ZM 629.25 690.65 C634.73,686.62 632.11,678.73 620.94,665.64 C614.25,657.80 610.35,655.00 606.14,655.00 C600.89,655.00 597.23,657.49 595.89,661.98 C594.80,665.61 594.91,666.26 597.23,669.72 C601.46,676.05 614.09,690.08 617.31,692.04 C620.86,694.20 625.08,693.71 629.25,690.65 ZM 381.89 451.10 C385.78,447.47 385.91,444.02 382.41,437.40 C379.34,431.59 377.13,429.03 370.69,423.89 C364.28,418.77 358.79,417.26 355.17,419.61 C351.13,422.24 350.07,424.10 350.03,428.60 C349.99,433.56 353.01,438.08 361.58,445.90 C371.15,454.65 376.60,456.04 381.89,451.10 ZM 366.00 691.87 C370.31,689.25 376.65,682.94 380.84,677.10 C385.24,670.97 385.27,665.25 380.92,661.59 C374.71,656.36 369.10,658.51 357.79,670.46 C347.34,681.50 346.78,686.82 355.50,692.16 C359.39,694.54 361.71,694.47 366.00,691.87 ZM 496.24 400.03 C501.84,395.62 503.73,384.34 500.46,374.93 C498.24,368.55 495.68,365.90 491.15,365.29 C486.16,364.62 482.74,366.81 480.12,372.33 C474.80,383.52 477.80,398.30 486.00,401.29 C489.24,402.48 493.85,401.91 496.24,400.03 ZM 479.12 518.39 C481.26,517.61 484.19,517.12 487.30,516.92 C484.43,517.22 481.27,517.84 478.55,518.60 C478.74,518.53 478.93,518.46 479.12,518.39 Z" fill="rgb(174,224,244)"/>
<path d="M 416.24 630.01 C412.81,627.92 409.01,622.61 409.00,619.91 C408.99,616.02 414.67,608.88 430.75,592.58 C440.24,582.96 448.00,574.78 448.00,574.39 C448.00,574.30 448.13,574.07 448.36,573.75 L 452.84 569.50 C457.81,564.79 458.18,564.62 459.18,566.50 C459.77,567.60 463.14,571.31 466.68,574.75 C470.80,578.76 472.84,581.46 472.36,582.25 C471.87,583.08 472.19,583.03 473.32,582.12 C473.39,582.06 473.47,582.00 473.54,581.95 L 457.50 599.15 C433.39,625.00 431.95,626.47 427.61,629.38 C422.95,632.52 420.57,632.65 416.24,630.01 ZM 505.36 579.53 C501.92,581.27 499.99,582.01 496.84,582.31 C509.56,579.87 519.11,570.66 521.96,557.09 C520.15,566.50 514.37,574.96 505.36,579.53 ZM 517.14 532.23 C519.53,535.94 521.10,539.93 521.91,543.99 C520.85,539.29 518.77,534.61 515.99,530.51 C516.38,531.06 516.76,531.64 517.14,532.23 ZM 448.86 573.09 C449.76,571.95 451.27,570.23 452.98,568.43 C455.20,566.08 456.42,564.74 456.98,563.67 C456.41,564.80 455.13,566.25 452.76,568.83 ZM 472.55 521.08 C473.06,520.70 473.80,520.31 474.69,519.93 C475.05,519.82 475.68,519.62 476.46,519.35 C472.87,520.61 472.18,521.27 466.89,525.94 C466.84,525.98 466.79,526.02 466.74,526.07 C468.45,524.37 470.38,522.72 472.55,521.08 ZM 476.08 581.23 C477.18,581.25 478.69,581.51 481.01,582.00 C481.14,582.03 481.26,582.06 481.39,582.08 C480.18,581.97 479.18,581.84 478.50,581.71 ZM 459.53 535.96 C457.62,540.10 456.46,544.78 456.18,549.72 C456.47,544.61 457.54,540.09 459.53,535.96 ZM 476.99 519.16 C477.47,518.99 478.00,518.80 478.55,518.60 C478.72,518.56 478.88,518.51 479.05,518.47 C478.27,518.73 477.59,518.96 476.99,519.16 Z" fill="rgb(220,73,79)"/>
<path d="M 448.86 573.09 L 452.76 568.83 C455.13,566.25 456.41,564.81 456.98,563.67 L 456.98 563.67 C457.61,562.47 457.41,561.61 456.87,560.06 C456.27,558.34 455.96,553.69 456.18,549.72 C456.47,544.61 457.54,540.09 459.53,535.96 C461.24,532.42 463.62,529.17 466.74,526.07 C466.79,526.02 466.84,525.98 466.89,525.94 C472.18,521.27 472.87,520.61 476.46,519.35 C476.63,519.29 476.80,519.23 476.99,519.16 C477.59,518.96 478.27,518.73 479.05,518.47 C481.65,517.76 484.61,517.20 487.30,516.92 C490.34,516.72 493.55,516.80 496.32,517.17 C504.38,518.47 510.54,522.69 515.99,530.51 C518.77,534.61 520.85,539.29 521.91,543.99 L 521.91 543.99 C522.78,548.37 522.78,552.83 521.96,557.09 C519.11,570.66 509.56,579.87 496.84,582.31 C495.29,582.46 493.46,582.50 491.00,582.50 C487.77,582.50 484.08,582.33 481.39,582.08 C481.26,582.06 481.14,582.03 481.01,582.00 C478.69,581.51 477.18,581.25 476.08,581.23 L 474.50 580.92 L 473.54 581.95 C473.47,582.00 473.39,582.06 473.32,582.12 C472.19,583.03 471.87,583.08 472.36,582.25 C472.84,581.46 470.80,578.76 466.68,574.75 C463.14,571.31 459.77,567.60 459.18,566.50 C458.18,564.62 457.81,564.79 452.84,569.50 L 448.36 573.75 C448.50,573.56 448.66,573.34 448.86,573.09 ZM 484.32 561.93 C486.62,563.07 489.11,564.00 489.86,564.00 C492.78,564.00 498.87,559.58 500.88,556.00 C503.52,551.31 503.57,547.44 501.04,543.30 C494.28,532.20 477.33,537.01 476.78,550.18 C476.55,555.66 478.84,559.22 484.32,561.93 Z" fill="rgb(235,131,131)"/>
<path d="M 0.00 490.00 L 0.00 0.00 L 490.00 0.00 L 980.00 0.00 L 980.00 490.00 L 980.00 980.00 L 490.00 980.00 L 0.00 980.00 L 0.00 490.00 ZM 516.00 838.49 C538.29,836.08 543.37,835.22 560.80,830.91 C613.23,817.92 658.19,792.75 695.50,755.50 C712.47,738.55 725.66,721.76 737.91,701.50 C766.24,654.62 781.58,592.36 778.05,538.50 C776.49,514.66 771.39,486.72 767.01,478.00 C766.04,476.08 764.76,472.19 764.16,469.36 C761.96,458.97 747.86,427.58 738.86,413.00 C737.33,410.52 734.30,405.57 732.13,401.99 C728.59,396.13 714.38,376.67 707.48,368.21 L 704.80 364.93 L 713.32 356.25 L 721.85 347.57 L 727.41 352.83 C736.59,361.51 743.86,363.30 749.00,358.15 C752.43,354.72 753.54,349.73 752.09,344.33 C751.18,340.96 746.69,336.10 723.52,313.42 C708.40,298.61 694.41,285.65 692.44,284.61 C689.40,283.01 688.28,282.90 685.09,283.86 C680.58,285.21 678.25,287.59 676.53,292.59 C674.60,298.22 676.21,302.52 682.75,309.20 L 688.33 314.89 L 679.61 323.48 L 670.89 332.06 L 661.70 325.28 C648.60,315.62 647.75,315.06 634.99,307.74 C601.95,288.81 569.78,277.55 533.00,272.03 C519.45,270.00 521.00,272.46 521.00,252.98 C521.00,240.09 521.30,235.99 522.25,235.94 C544.43,234.92 549.91,233.54 555.32,227.60 C562.26,219.97 564.46,208.39 563.77,183.14 C563.39,168.93 562.99,165.65 561.06,160.67 C556.97,150.12 549.62,144.33 537.53,142.09 C533.88,141.42 515.99,141.01 490.57,141.01 C457.25,141.03 448.28,141.32 443.01,142.56 C430.86,145.42 424.95,150.75 421.45,162.00 C418.85,170.35 418.18,205.14 420.45,213.86 C424.45,229.21 434.25,236.00 452.39,236.00 L 458.69 236.00 L 459.34 252.67 C459.70,261.83 459.81,269.53 459.57,269.77 C459.05,270.28 440.66,273.53 429.73,275.03 C418.96,276.51 395.43,284.03 374.50,292.68 C366.16,296.13 342.84,307.87 340.92,309.59 C340.05,310.36 339.03,311.00 338.65,311.00 C337.32,311.00 323.64,320.79 315.41,327.64 L 310.33 331.87 L 302.00 323.50 L 293.66 315.12 L 297.37 310.59 C299.42,308.10 302.02,303.95 303.16,301.38 C304.93,297.37 305.06,296.16 304.09,292.90 C303.46,290.82 301.81,288.21 300.41,287.10 C297.51,284.83 290.34,283.46 286.85,284.51 C285.56,284.90 277.05,292.71 267.93,301.86 C258.82,311.01 246.59,323.00 240.76,328.50 C228.16,340.38 225.20,345.31 226.89,351.60 C229.91,362.81 242.25,363.92 253.04,353.97 C255.40,351.79 257.64,350.00 258.03,350.00 C259.27,350.00 273.00,364.94 273.00,366.29 C273.00,367.02 271.39,369.16 269.43,371.05 C259.83,380.31 239.77,410.12 230.47,428.95 C199.74,491.18 193.86,562.26 213.66,632.00 C222.31,662.45 238.73,695.77 258.21,722.37 C280.23,752.45 311.13,780.45 344.45,800.53 C393.35,830.01 459.28,844.60 516.00,838.49 ZM 461.50 785.52 C426.75,780.72 393.55,768.30 364.50,749.23 C327.38,724.87 300.15,693.68 280.92,653.51 C246.34,581.28 251.99,496.07 295.80,429.00 C308.90,408.94 329.10,386.36 344.68,374.36 C348.86,371.14 354.73,366.56 357.71,364.18 C360.69,361.81 365.46,358.62 368.32,357.09 C371.17,355.57 377.18,352.24 381.69,349.70 C389.80,345.13 407.91,337.48 422.13,332.62 C444.15,325.10 461.64,322.60 492.50,322.54 C507.75,322.51 517.69,322.94 522.00,323.82 C543.08,328.10 549.35,329.50 557.00,331.67 C561.67,333.00 566.35,334.55 567.39,335.13 C568.43,335.72 571.58,336.87 574.39,337.70 C579.60,339.24 584.69,341.61 598.00,348.69 C607.42,353.70 612.41,356.55 615.82,358.87 C617.30,359.87 620.52,362.00 623.00,363.59 C632.82,369.94 648.63,382.97 656.55,391.23 C678.31,413.94 694.24,437.80 705.82,465.07 C713.85,483.97 717.86,497.87 720.92,517.50 C728.67,567.13 722.87,609.27 702.42,651.90 C671.51,716.34 612.30,764.13 542.45,781.01 C518.69,786.76 484.32,788.67 461.50,785.52 ZM 515.99 748.00 C529.75,745.91 548.40,740.83 560.01,735.99 C564.13,734.28 569.08,732.26 571.00,731.52 C579.11,728.38 594.70,719.67 606.47,711.69 C614.26,706.40 637.33,683.80 645.44,673.50 C664.48,649.33 677.59,620.56 683.49,590.00 C685.73,578.36 686.72,540.85 685.09,529.19 C679.79,491.36 660.40,448.29 639.33,427.56 C629.40,417.78 629.40,417.79 621.00,409.15 C605.82,393.54 570.93,374.03 544.71,366.50 C475.06,346.50 399.53,366.75 349.20,418.94 C322.89,446.21 305.00,480.92 297.36,519.50 C295.06,531.08 294.74,574.28 296.86,586.00 C301.59,612.21 309.90,634.47 322.92,655.81 C327.92,664.01 339.35,679.76 344.38,685.38 C362.50,705.65 375.90,715.83 400.15,727.81 C425.78,740.46 455.21,748.87 474.50,749.07 C478.35,749.11 482.40,749.56 483.50,750.07 C486.11,751.27 500.32,750.37 515.99,748.00 ZM 443.58 211.44 C440.98,208.84 440.51,205.28 440.51,188.00 C440.50,173.71 440.75,171.03 442.39,168.00 C443.43,166.07 444.78,164.17 445.39,163.77 C446.00,163.36 466.63,163.02 491.23,163.02 L 535.97 163.00 L 539.10 165.80 L 542.23 168.60 L 542.37 186.55 C542.49,202.66 542.30,204.91 540.50,208.50 L 538.50 212.50 L 491.83 212.76 C450.41,212.99 444.98,212.84 443.58,211.44 ZM 484.32 561.93 C478.84,559.22 476.55,555.66 476.78,550.18 C477.33,537.01 494.28,532.20 501.04,543.30 C503.57,547.44 503.52,551.31 500.88,556.00 C498.87,559.58 492.78,564.00 489.86,564.00 C489.11,564.00 486.62,563.07 484.32,561.93 Z" fill="rgb(254,254,254)"/>
</g>
</svg>